<?xml version="1.0" encoding="UTF-8" standalone="no"?><svg xmlns="http://www.w3.org/2000/svg" xmlns:xlink="http://www.w3.org/1999/xlink" contentScriptType="application/ecmascript" contentStyleType="text/css" height="520px" preserveAspectRatio="none" style="width:134px;height:520px;" version="1.1" viewBox="0 0 134 520" width="134px" zoomAndPan="magnify"><defs><filter height="300%" id="f1tsukqild9n4c" width="300%" x="-1" y="-1"><feGaussianBlur result="blurOut" stdDeviation="2.0"/><feColorMatrix in="blurOut" result="blurOut2" type="matrix" values="0 0 0 0 0 0 0 0 0 0 0 0 0 0 0 0 0 0 .4 0"/><feOffset dx="4.0" dy="4.0" in="blurOut2" result="blurOut3"/><feBlend in="SourceGraphic" in2="blurOut3" mode="normal"/></filter></defs><g><ellipse cx="64" cy="20" fill="#000000" filter="url(#f1tsukqild9n4c)" rx="10" ry="10" style="stroke:none;stroke-width:1.0;"/><rect fill="#FEFECE" filter="url(#f1tsukqild9n4c)" height="33.9688" rx="12.5" ry="12.5" style="stroke:#A80036;stroke-width:1.5;" width="79" x="24.5" y="50"/><text fill="#000000" font-family="sans-serif" font-size="12" lengthAdjust="spacingAndGlyphs" textLength="59" x="34.5" y="71.1387">Bug Report</text><rect fill="#FEFECE" filter="url(#f1tsukqild9n4c)" height="33.9688" rx="12.5" ry="12.5" style="stroke:#A80036;stroke-width:1.5;" width="64" x="32" y="103.9688"/><text fill="#000000" font-family="sans-serif" font-size="12" lengthAdjust="spacingAndGlyphs" textLength="44" x="42" y="125.1074">analysis</text><rect fill="#FEFECE" filter="url(#f1tsukqild9n4c)" height="33.9688" rx="12.5" ry="12.5" style="stroke:#A80036;stroke-width:1.5;" width="96" x="16" y="157.9375"/><text fill="#000000" font-family="sans-serif" font-size="12" lengthAdjust="spacingAndGlyphs" textLength="76" x="26" y="179.0762">self-validation</text><rect fill="#FEFECE" filter="url(#f1tsukqild9n4c)" height="33.9688" rx="12.5" ry="12.5" style="stroke:#A80036;stroke-width:1.5;" width="91" x="18.5" y="211.9063"/><text fill="#000000" font-family="sans-serif" font-size="12" lengthAdjust="spacingAndGlyphs" textLength="71" x="28.5" y="233.0449">validated.md</text><rect fill="#FEFECE" filter="url(#f1tsukqild9n4c)" height="33.9688" rx="12.5" ry="12.5" style="stroke:#A80036;stroke-width:1.5;" width="38" x="45" y="265.875"/><text fill="#000000" font-family="sans-serif" font-size="12" lengthAdjust="spacingAndGlyphs" textLength="18" x="55" y="287.0137">top</text><rect fill="#FEFECE" filter="url(#f1tsukqild9n4c)" height="33.9688" rx="12.5" ry="12.5" style="stroke:#A80036;stroke-width:1.5;" width="53" x="37.5" y="319.8438"/><text fill="#000000" font-family="sans-serif" font-size="12" lengthAdjust="spacingAndGlyphs" textLength="33" x="47.5" y="340.9824">polish</text><rect fill="#FEFECE" filter="url(#f1tsukqild9n4c)" height="33.9688" rx="12.5" ry="12.5" style="stroke:#A80036;stroke-width:1.5;" width="85" x="21.5" y="373.8125"/><text fill="#000000" font-family="sans-serif" font-size="12" lengthAdjust="spacingAndGlyphs" textLength="65" x="31.5" y="394.9512">suggestions</text><rect fill="#FEFECE" filter="url(#f1tsukqild9n4c)" height="33.9688" rx="12.5" ry="12.5" style="stroke:#A80036;stroke-width:1.5;" width="106" x="11" y="427.7813"/><text fill="#000000" font-family="sans-serif" font-size="12" lengthAdjust="spacingAndGlyphs" textLength="86" x="21" y="448.9199">suggestions.md</text><ellipse cx="64" cy="492.75" fill="#FFFFFF" filter="url(#f1tsukqild9n4c)" rx="11" ry="11" style="stroke:#000000;stroke-width:1.0;"/><ellipse cx="64" cy="492.75" fill="#000000" rx="6" ry="6" style="stroke:#7F7F7F;stroke-width:1.0;"/><line style="stroke:#A80036;stroke-width:1.5;" x1="64" x2="64" y1="30" y2="50"/><polygon fill="#A80036" points="60,40,64,50,68,40,64,44" style="stroke:#A80036;stroke-width:1.0;"/><line style="stroke:#A80036;stroke-width:1.5;" x1="64" x2="64" y1="83.9688" y2="103.9688"/><polygon fill="#A80036" points="60,93.9688,64,103.9688,68,93.9688,64,97.9688" style="stroke:#A80036;stroke-width:1.0;"/><line style="stroke:#A80036;stroke-width:1.5;" x1="64" x2="64" y1="137.9375" y2="157.9375"/><polygon fill="#A80036" points="60,147.9375,64,157.9375,68,147.9375,64,151.9375" style="stroke:#A80036;stroke-width:1.0;"/><line style="stroke:#A80036;stroke-width:1.5;" x1="64" x2="64" y1="191.9063" y2="211.9063"/><polygon fill="#A80036" points="60,201.9063,64,211.9063,68,201.9063,64,205.9063" style="stroke:#A80036;stroke-width:1.0;"/><line style="stroke:#A80036;stroke-width:1.5;" x1="64" x2="64" y1="245.875" y2="265.875"/><polygon fill="#A80036" points="60,255.875,64,265.875,68,255.875,64,259.875" style="stroke:#A80036;stroke-width:1.0;"/><line style="stroke:#A80036;stroke-width:1.5;" x1="64" x2="64" y1="299.8438" y2="319.8438"/><polygon fill="#A80036" points="60,309.8438,64,319.8438,68,309.8438,64,313.8438" style="stroke:#A80036;stroke-width:1.0;"/><line style="stroke:#A80036;stroke-width:1.5;" x1="64" x2="64" y1="353.8125" y2="373.8125"/><polygon fill="#A80036" points="60,363.8125,64,373.8125,68,363.8125,64,367.8125" style="stroke:#A80036;stroke-width:1.0;"/><line style="stroke:#A80036;stroke-width:1.5;" x1="64" x2="64" y1="407.7813" y2="427.7813"/><polygon fill="#A80036" points="60,417.7813,64,427.7813,68,417.7813,64,421.7813" style="stroke:#A80036;stroke-width:1.0;"/><line style="stroke:#A80036;stroke-width:1.5;" x1="64" x2="64" y1="461.75" y2="481.75"/><polygon fill="#A80036" points="60,471.75,64,481.75,68,471.75,64,475.75" style="stroke:#A80036;stroke-width:1.0;"/><!--MD5=[b6d47152d595a55ccf62333611d56381]
@startuml
start
:Bug Report;
:analysis;
:self-validation;
:validated.md;
:top;
:polish;
:suggestions;
:suggestions.md;
stop
@enduml

PlantUML version 1.2020.23(Sun Dec 13 19:14:58 GMT 2020)
(GPL source distribution)
Java Runtime: OpenJDK Runtime Environment
JVM: OpenJDK 64-Bit Server VM
Default Encoding: UTF-8
Language: en
Country: US
--></g></svg>