<?xml version="1.0" encoding="UTF-8" standalone="no"?><svg xmlns="http://www.w3.org/2000/svg" xmlns:xlink="http://www.w3.org/1999/xlink" contentScriptType="application/ecmascript" contentStyleType="text/css" height="520px" preserveAspectRatio="none" style="width:139px;height:520px;" version="1.1" viewBox="0 0 139 520" width="139px" zoomAndPan="magnify"><defs><filter height="300%" id="fzyx0i2oo945u" width="300%" x="-1" y="-1"><feGaussianBlur result="blurOut" stdDeviation="2.0"/><feColorMatrix in="blurOut" result="blurOut2" type="matrix" values="0 0 0 0 0 0 0 0 0 0 0 0 0 0 0 0 0 0 .4 0"/><feOffset dx="4.0" dy="4.0" in="blurOut2" result="blurOut3"/><feBlend in="SourceGraphic" in2="blurOut3" mode="normal"/></filter></defs><g><ellipse cx="66.5" cy="20" fill="#000000" filter="url(#fzyx0i2oo945u)" rx="10" ry="10" style="stroke:none;stroke-width:1.0;"/><rect fill="#FEFECE" filter="url(#fzyx0i2oo945u)" height="33.9688" rx="12.5" ry="12.5" style="stroke:#A80036;stroke-width:1.5;" width="79" x="27" y="50"/><text fill="#000000" font-family="sans-serif" font-size="12" lengthAdjust="spacingAndGlyphs" textLength="59" x="37" y="71.1387">Bug Report</text><rect fill="#FEFECE" filter="url(#fzyx0i2oo945u)" height="33.9688" rx="12.5" ry="12.5" style="stroke:#A80036;stroke-width:1.5;" width="64" x="34.5" y="103.9688"/><text fill="#000000" font-family="sans-serif" font-size="12" lengthAdjust="spacingAndGlyphs" textLength="44" x="44.5" y="125.1074">analysis</text><rect fill="#FEFECE" filter="url(#fzyx0i2oo945u)" height="33.9688" rx="12.5" ry="12.5" style="stroke:#A80036;stroke-width:1.5;" width="96" x="18.5" y="157.9375"/><text fill="#000000" font-family="sans-serif" font-size="12" lengthAdjust="spacingAndGlyphs" textLength="76" x="28.5" y="179.0762">self-validation</text><rect fill="#FEFECE" filter="url(#fzyx0i2oo945u)" height="33.9688" rx="12.5" ry="12.5" style="stroke:#A80036;stroke-width:1.5;" width="96" x="18.5" y="211.9063"/><text fill="#000000" font-family="sans-serif" font-size="12" lengthAdjust="spacingAndGlyphs" textLength="76" x="28.5" y="233.0449">validated.json</text><rect fill="#FEFECE" filter="url(#fzyx0i2oo945u)" height="33.9688" rx="12.5" ry="12.5" style="stroke:#A80036;stroke-width:1.5;" width="38" x="47.5" y="265.875"/><text fill="#000000" font-family="sans-serif" font-size="12" lengthAdjust="spacingAndGlyphs" textLength="18" x="57.5" y="287.0137">top</text><rect fill="#FEFECE" filter="url(#fzyx0i2oo945u)" height="33.9688" rx="12.5" ry="12.5" style="stroke:#A80036;stroke-width:1.5;" width="53" x="40" y="319.8438"/><text fill="#000000" font-family="sans-serif" font-size="12" lengthAdjust="spacingAndGlyphs" textLength="33" x="50" y="340.9824">polish</text><rect fill="#FEFECE" filter="url(#fzyx0i2oo945u)" height="33.9688" rx="12.5" ry="12.5" style="stroke:#A80036;stroke-width:1.5;" width="85" x="24" y="373.8125"/><text fill="#000000" font-family="sans-serif" font-size="12" lengthAdjust="spacingAndGlyphs" textLength="65" x="34" y="394.9512">suggestions</text><rect fill="#FEFECE" filter="url(#fzyx0i2oo945u)" height="33.9688" rx="12.5" ry="12.5" style="stroke:#A80036;stroke-width:1.5;" width="111" x="11" y="427.7813"/><text fill="#000000" font-family="sans-serif" font-size="12" lengthAdjust="spacingAndGlyphs" textLength="91" x="21" y="448.9199">suggestions.json</text><ellipse cx="66.5" cy="492.75" fill="#FFFFFF" filter="url(#fzyx0i2oo945u)" rx="11" ry="11" style="stroke:#000000;stroke-width:1.0;"/><ellipse cx="66.5" cy="492.75" fill="#000000" rx="6" ry="6" style="stroke:#7F7F7F;stroke-width:1.0;"/><line style="stroke:#A80036;stroke-width:1.5;" x1="66.5" x2="66.5" y1="30" y2="50"/><polygon fill="#A80036" points="62.5,40,66.5,50,70.5,40,66.5,44" style="stroke:#A80036;stroke-width:1.0;"/><line style="stroke:#A80036;stroke-width:1.5;" x1="66.5" x2="66.5" y1="83.9688" y2="103.9688"/><polygon fill="#A80036" points="62.5,93.9688,66.5,103.9688,70.5,93.9688,66.5,97.9688" style="stroke:#A80036;stroke-width:1.0;"/><line style="stroke:#A80036;stroke-width:1.5;" x1="66.5" x2="66.5" y1="137.9375" y2="157.9375"/><polygon fill="#A80036" points="62.5,147.9375,66.5,157.9375,70.5,147.9375,66.5,151.9375" style="stroke:#A80036;stroke-width:1.0;"/><line style="stroke:#A80036;stroke-width:1.5;" x1="66.5" x2="66.5" y1="191.9063" y2="211.9063"/><polygon fill="#A80036" points="62.5,201.9063,66.5,211.9063,70.5,201.9063,66.5,205.9063" style="stroke:#A80036;stroke-width:1.0;"/><line style="stroke:#A80036;stroke-width:1.5;" x1="66.5" x2="66.5" y1="245.875" y2="265.875"/><polygon fill="#A80036" points="62.5,255.875,66.5,265.875,70.5,255.875,66.5,259.875" style="stroke:#A80036;stroke-width:1.0;"/><line style="stroke:#A80036;stroke-width:1.5;" x1="66.5" x2="66.5" y1="299.8438" y2="319.8438"/><polygon fill="#A80036" points="62.5,309.8438,66.5,319.8438,70.5,309.8438,66.5,313.8438" style="stroke:#A80036;stroke-width:1.0;"/><line style="stroke:#A80036;stroke-width:1.5;" x1="66.5" x2="66.5" y1="353.8125" y2="373.8125"/><polygon fill="#A80036" points="62.5,363.8125,66.5,373.8125,70.5,363.8125,66.5,367.8125" style="stroke:#A80036;stroke-width:1.0;"/><line style="stroke:#A80036;stroke-width:1.5;" x1="66.5" x2="66.5" y1="407.7813" y2="427.7813"/><polygon fill="#A80036" points="62.5,417.7813,66.5,427.7813,70.5,417.7813,66.5,421.7813" style="stroke:#A80036;stroke-width:1.0;"/><line style="stroke:#A80036;stroke-width:1.5;" x1="66.5" x2="66.5" y1="461.75" y2="481.75"/><polygon fill="#A80036" points="62.5,471.75,66.5,481.75,70.5,471.75,66.5,475.75" style="stroke:#A80036;stroke-width:1.0;"/><!--MD5=[19e56ee168078ae5cc5ca0ae7d8d4f3d]
@startuml
start
:Bug Report;
:analysis;
:self-validation;
:validated.json;
:top;
:polish;
:suggestions;
:suggestions.json;
stop
@enduml

PlantUML version 1.2020.23(Sun Dec 13 19:14:58 GMT 2020)
(GPL source distribution)
Java Runtime: OpenJDK Runtime Environment
JVM: OpenJDK 64-Bit Server VM
Default Encoding: UTF-8
Language: en
Country: US
--></g></svg>