<?xml version="1.0" encoding="UTF-8" standalone="no"?><svg xmlns="http://www.w3.org/2000/svg" xmlns:xlink="http://www.w3.org/1999/xlink" contentScriptType="application/ecmascript" contentStyleType="text/css" height="779px" preserveAspectRatio="none" style="width:608px;height:779px;" version="1.1" viewBox="0 0 608 779" width="608px" zoomAndPan="magnify"><defs><filter height="300%" id="fzkb9a6fy33q3" width="300%" x="-1" y="-1"><feGaussianBlur result="blurOut" stdDeviation="2.0"/><feColorMatrix in="blurOut" result="blurOut2" type="matrix" values="0 0 0 0 0 0 0 0 0 0 0 0 0 0 0 0 0 0 .4 0"/><feOffset dx="4.0" dy="4.0" in="blurOut2" result="blurOut3"/><feBlend in="SourceGraphic" in2="blurOut3" mode="normal"/></filter></defs><g><rect fill="#FFFFFF" filter="url(#fzkb9a6fy33q3)" height="75.3984" style="stroke:#000000;stroke-width:2.0;" width="287" x="10" y="232.0938"/><rect fill="#FFFFFF" filter="url(#fzkb9a6fy33q3)" height="397.8594" style="stroke:#000000;stroke-width:2.0;" width="584.5" x="10" y="321.4922"/><rect fill="#FFFFFF" filter="url(#fzkb9a6fy33q3)" height="133.6641" style="stroke:#000000;stroke-width:2.0;" width="366.5" x="218" y="403.8906"/><line style="stroke:#A80036;stroke-width:1.0;stroke-dasharray:5.0,5.0;" x1="56" x2="56" y1="40.2969" y2="736.3516"/><line style="stroke:#A80036;stroke-width:1.0;stroke-dasharray:5.0,5.0;" x1="154" x2="154" y1="40.2969" y2="736.3516"/><line style="stroke:#A80036;stroke-width:1.0;stroke-dasharray:5.0,5.0;" x1="257" x2="257" y1="40.2969" y2="736.3516"/><line style="stroke:#A80036;stroke-width:1.0;stroke-dasharray:5.0,5.0;" x1="552.5" x2="552.5" y1="40.2969" y2="736.3516"/><rect fill="#FEFECE" filter="url(#fzkb9a6fy33q3)" height="30.2969" style="stroke:#A80036;stroke-width:1.5;" width="69" x="20" y="5"/><text fill="#000000" font-family="sans-serif" font-size="14" lengthAdjust="spacingAndGlyphs" textLength="55" x="27" y="24.9951">Reporter</text><rect fill="#FEFECE" filter="url(#fzkb9a6fy33q3)" height="30.2969" style="stroke:#A80036;stroke-width:1.5;" width="69" x="20" y="735.3516"/><text fill="#000000" font-family="sans-serif" font-size="14" lengthAdjust="spacingAndGlyphs" textLength="55" x="27" y="755.3467">Reporter</text><rect fill="#FEFECE" filter="url(#fzkb9a6fy33q3)" height="30.2969" style="stroke:#A80036;stroke-width:1.5;" width="59" x="123" y="5"/><text fill="#000000" font-family="sans-serif" font-size="14" lengthAdjust="spacingAndGlyphs" textLength="45" x="130" y="24.9951">GitHub</text><rect fill="#FEFECE" filter="url(#fzkb9a6fy33q3)" height="30.2969" style="stroke:#A80036;stroke-width:1.5;" width="59" x="123" y="735.3516"/><text fill="#000000" font-family="sans-serif" font-size="14" lengthAdjust="spacingAndGlyphs" textLength="45" x="130" y="755.3467">GitHub</text><rect fill="#FEFECE" filter="url(#fzkb9a6fy33q3)" height="30.2969" style="stroke:#A80036;stroke-width:1.5;" width="55" x="228" y="5"/><text fill="#000000" font-family="sans-serif" font-size="14" lengthAdjust="spacingAndGlyphs" textLength="41" x="235" y="24.9951">Action</text><rect fill="#FEFECE" filter="url(#fzkb9a6fy33q3)" height="30.2969" style="stroke:#A80036;stroke-width:1.5;" width="55" x="228" y="735.3516"/><text fill="#000000" font-family="sans-serif" font-size="14" lengthAdjust="spacingAndGlyphs" textLength="41" x="235" y="755.3467">Action</text><rect fill="#FEFECE" filter="url(#fzkb9a6fy33q3)" height="30.2969" style="stroke:#A80036;stroke-width:1.5;" width="40" x="530.5" y="5"/><text fill="#000000" font-family="sans-serif" font-size="14" lengthAdjust="spacingAndGlyphs" textLength="26" x="537.5" y="24.9951">LLM</text><rect fill="#FEFECE" filter="url(#fzkb9a6fy33q3)" height="30.2969" style="stroke:#A80036;stroke-width:1.5;" width="40" x="530.5" y="735.3516"/><text fill="#000000" font-family="sans-serif" font-size="14" lengthAdjust="spacingAndGlyphs" textLength="26" x="537.5" y="755.3467">LLM</text><polygon fill="#A80036" points="142.5,67.4297,152.5,71.4297,142.5,75.4297,146.5,71.4297" style="stroke:#A80036;stroke-width:1.0;"/><line style="stroke:#A80036;stroke-width:1.0;" x1="56.5" x2="148.5" y1="71.4297" y2="71.4297"/><text fill="#000000" font-family="sans-serif" font-size="13" lengthAdjust="spacingAndGlyphs" textLength="74" x="63.5" y="66.3638">GitHub issue</text><polygon fill="#A80036" points="245.5,96.5625,255.5,100.5625,245.5,104.5625,249.5,100.5625" style="stroke:#A80036;stroke-width:1.0;"/><line style="stroke:#A80036;stroke-width:1.0;" x1="154.5" x2="251.5" y1="100.5625" y2="100.5625"/><text fill="#000000" font-family="sans-serif" font-size="13" lengthAdjust="spacingAndGlyphs" textLength="74" x="161.5" y="95.4966">GitHub issue</text><polygon fill="#A80036" points="540.5,125.6953,550.5,129.6953,540.5,133.6953,544.5,129.6953" style="stroke:#A80036;stroke-width:1.0;"/><line style="stroke:#A80036;stroke-width:1.0;" x1="257.5" x2="546.5" y1="129.6953" y2="129.6953"/><text fill="#000000" font-family="sans-serif" font-size="13" lengthAdjust="spacingAndGlyphs" textLength="134" x="264.5" y="124.6294">issue, ask for problems</text><polygon fill="#A80036" points="268.5,154.8281,258.5,158.8281,268.5,162.8281,264.5,158.8281" style="stroke:#A80036;stroke-width:1.0;"/><line style="stroke:#A80036;stroke-width:1.0;stroke-dasharray:2.0,2.0;" x1="262.5" x2="551.5" y1="158.8281" y2="158.8281"/><text fill="#000000" font-family="sans-serif" font-size="13" lengthAdjust="spacingAndGlyphs" textLength="56" x="274.5" y="153.7622">problems</text><polygon fill="#A80036" points="540.5,183.9609,550.5,187.9609,540.5,191.9609,544.5,187.9609" style="stroke:#A80036;stroke-width:1.0;"/><line style="stroke:#A80036;stroke-width:1.0;" x1="257.5" x2="546.5" y1="187.9609" y2="187.9609"/><text fill="#000000" font-family="sans-serif" font-size="13" lengthAdjust="spacingAndGlyphs" textLength="150" x="264.5" y="182.895">report, problems, validate</text><polygon fill="#A80036" points="268.5,213.0938,258.5,217.0938,268.5,221.0938,264.5,217.0938" style="stroke:#A80036;stroke-width:1.0;"/><line style="stroke:#A80036;stroke-width:1.0;stroke-dasharray:2.0,2.0;" x1="262.5" x2="551.5" y1="217.0938" y2="217.0938"/><text fill="#000000" font-family="sans-serif" font-size="13" lengthAdjust="spacingAndGlyphs" textLength="53" x="274.5" y="212.0278">validated</text><path d="M10,232.0938 L73,232.0938 L73,239.0938 L63,249.0938 L10,249.0938 L10,232.0938 " fill="#EEEEEE" style="stroke:#000000;stroke-width:1.0;"/><rect fill="none" height="75.3984" style="stroke:#000000;stroke-width:2.0;" width="287" x="10" y="232.0938"/><text fill="#000000" font-family="sans-serif" font-size="13" font-weight="bold" lengthAdjust="spacingAndGlyphs" textLength="18" x="25" y="245.1606">alt</text><text fill="#000000" font-family="sans-serif" font-size="11" font-weight="bold" lengthAdjust="spacingAndGlyphs" textLength="114" x="88" y="244.3042">[validated are empty]</text><polygon fill="#A80036" points="165.5,266.3594,155.5,270.3594,165.5,274.3594,161.5,270.3594" style="stroke:#A80036;stroke-width:1.0;"/><line style="stroke:#A80036;stroke-width:1.0;stroke-dasharray:2.0,2.0;" x1="159.5" x2="256.5" y1="270.3594" y2="270.3594"/><text fill="#000000" font-family="sans-serif" font-size="13" lengthAdjust="spacingAndGlyphs" textLength="45" x="171.5" y="265.2935">success</text><polygon fill="#A80036" points="67.5,295.4922,57.5,299.4922,67.5,303.4922,63.5,299.4922" style="stroke:#A80036;stroke-width:1.0;"/><line style="stroke:#A80036;stroke-width:1.0;stroke-dasharray:2.0,2.0;" x1="61.5" x2="256.5" y1="299.4922" y2="299.4922"/><text fill="#000000" font-family="sans-serif" font-size="13" lengthAdjust="spacingAndGlyphs" textLength="58" x="73.5" y="294.4263">thank you</text><path d="M10,321.4922 L73,321.4922 L73,328.4922 L63,338.4922 L10,338.4922 L10,321.4922 " fill="#EEEEEE" style="stroke:#000000;stroke-width:1.0;"/><rect fill="none" height="397.8594" style="stroke:#000000;stroke-width:2.0;" width="584.5" x="10" y="321.4922"/><text fill="#000000" font-family="sans-serif" font-size="13" font-weight="bold" lengthAdjust="spacingAndGlyphs" textLength="18" x="25" y="334.5591">alt</text><text fill="#000000" font-family="sans-serif" font-size="11" font-weight="bold" lengthAdjust="spacingAndGlyphs" textLength="136" x="88" y="333.7026">[validated are not empty]</text><polygon fill="#A80036" points="540.5,355.7578,550.5,359.7578,540.5,363.7578,544.5,359.7578" style="stroke:#A80036;stroke-width:1.0;"/><line style="stroke:#A80036;stroke-width:1.0;" x1="257.5" x2="546.5" y1="359.7578" y2="359.7578"/><text fill="#000000" font-family="sans-serif" font-size="13" lengthAdjust="spacingAndGlyphs" textLength="179" x="264.5" y="354.6919">validated, format to Markdown</text><polygon fill="#A80036" points="268.5,384.8906,258.5,388.8906,268.5,392.8906,264.5,388.8906" style="stroke:#A80036;stroke-width:1.0;"/><line style="stroke:#A80036;stroke-width:1.0;stroke-dasharray:2.0,2.0;" x1="262.5" x2="551.5" y1="388.8906" y2="388.8906"/><text fill="#000000" font-family="sans-serif" font-size="13" lengthAdjust="spacingAndGlyphs" textLength="75" x="274.5" y="383.8247">validated.md</text><path d="M218,403.8906 L281,403.8906 L281,410.8906 L271,420.8906 L218,420.8906 L218,403.8906 " fill="#EEEEEE" style="stroke:#000000;stroke-width:1.0;"/><rect fill="none" height="133.6641" style="stroke:#000000;stroke-width:2.0;" width="366.5" x="218" y="403.8906"/><text fill="#000000" font-family="sans-serif" font-size="13" font-weight="bold" lengthAdjust="spacingAndGlyphs" textLength="18" x="233" y="416.9575">alt</text><text fill="#000000" font-family="sans-serif" font-size="11" font-weight="bold" lengthAdjust="spacingAndGlyphs" textLength="98" x="296" y="416.1011">[validated size &gt; 3]</text><polygon fill="#A80036" points="540.5,438.1563,550.5,442.1563,540.5,446.1563,544.5,442.1563" style="stroke:#A80036;stroke-width:1.0;"/><line style="stroke:#A80036;stroke-width:1.0;" x1="257.5" x2="546.5" y1="442.1563" y2="442.1563"/><text fill="#000000" font-family="sans-serif" font-size="13" lengthAdjust="spacingAndGlyphs" textLength="194" x="264.5" y="437.0903">validated.md, cap top 3 problems</text><polygon fill="#A80036" points="268.5,467.2891,258.5,471.2891,268.5,475.2891,264.5,471.2891" style="stroke:#A80036;stroke-width:1.0;"/><line style="stroke:#A80036;stroke-width:1.0;stroke-dasharray:2.0,2.0;" x1="262.5" x2="551.5" y1="471.2891" y2="471.2891"/><text fill="#000000" font-family="sans-serif" font-size="13" lengthAdjust="spacingAndGlyphs" textLength="20" x="274.5" y="466.2231">top</text><polygon fill="#A80036" points="540.5,496.4219,550.5,500.4219,540.5,504.4219,544.5,500.4219" style="stroke:#A80036;stroke-width:1.0;"/><line style="stroke:#A80036;stroke-width:1.0;" x1="257.5" x2="546.5" y1="500.4219" y2="500.4219"/><text fill="#000000" font-family="sans-serif" font-size="13" lengthAdjust="spacingAndGlyphs" textLength="128" x="264.5" y="495.356">top, polish Markdown</text><polygon fill="#A80036" points="268.5,525.5547,258.5,529.5547,268.5,533.5547,264.5,529.5547" style="stroke:#A80036;stroke-width:1.0;"/><line style="stroke:#A80036;stroke-width:1.0;stroke-dasharray:2.0,2.0;" x1="262.5" x2="551.5" y1="529.5547" y2="529.5547"/><text fill="#000000" font-family="sans-serif" font-size="13" lengthAdjust="spacingAndGlyphs" textLength="42" x="274.5" y="524.4888">top.md</text><polygon fill="#A80036" points="540.5,561.6875,550.5,565.6875,540.5,569.6875,544.5,565.6875" style="stroke:#A80036;stroke-width:1.0;"/><line style="stroke:#A80036;stroke-width:1.0;" x1="257.5" x2="546.5" y1="565.6875" y2="565.6875"/><text fill="#000000" font-family="sans-serif" font-size="13" lengthAdjust="spacingAndGlyphs" textLength="271" x="264.5" y="560.6216">validated.md/polished.md, ask for suggestions</text><polygon fill="#A80036" points="268.5,590.8203,258.5,594.8203,268.5,598.8203,264.5,594.8203" style="stroke:#A80036;stroke-width:1.0;"/><line style="stroke:#A80036;stroke-width:1.0;stroke-dasharray:2.0,2.0;" x1="262.5" x2="551.5" y1="594.8203" y2="594.8203"/><text fill="#000000" font-family="sans-serif" font-size="13" lengthAdjust="spacingAndGlyphs" textLength="70" x="274.5" y="589.7544">suggestions</text><polygon fill="#A80036" points="540.5,619.9531,550.5,623.9531,540.5,627.9531,544.5,623.9531" style="stroke:#A80036;stroke-width:1.0;"/><line style="stroke:#A80036;stroke-width:1.0;" x1="257.5" x2="546.5" y1="623.9531" y2="623.9531"/><text fill="#000000" font-family="sans-serif" font-size="13" lengthAdjust="spacingAndGlyphs" textLength="196" x="264.5" y="618.8872">suggestions, format to Markdown</text><polygon fill="#A80036" points="268.5,649.0859,258.5,653.0859,268.5,657.0859,264.5,653.0859" style="stroke:#A80036;stroke-width:1.0;"/><line style="stroke:#A80036;stroke-width:1.0;stroke-dasharray:2.0,2.0;" x1="262.5" x2="551.5" y1="653.0859" y2="653.0859"/><text fill="#000000" font-family="sans-serif" font-size="13" lengthAdjust="spacingAndGlyphs" textLength="92" x="274.5" y="648.02">suggestions.md</text><polygon fill="#A80036" points="165.5,678.2188,155.5,682.2188,165.5,686.2188,161.5,682.2188" style="stroke:#A80036;stroke-width:1.0;"/><line style="stroke:#A80036;stroke-width:1.0;stroke-dasharray:2.0,2.0;" x1="159.5" x2="256.5" y1="682.2188" y2="682.2188"/><text fill="#000000" font-family="sans-serif" font-size="13" lengthAdjust="spacingAndGlyphs" textLength="17" x="171.5" y="677.1528">fail</text><polygon fill="#A80036" points="67.5,707.3516,57.5,711.3516,67.5,715.3516,63.5,711.3516" style="stroke:#A80036;stroke-width:1.0;"/><line style="stroke:#A80036;stroke-width:1.0;stroke-dasharray:2.0,2.0;" x1="61.5" x2="256.5" y1="711.3516" y2="711.3516"/><text fill="#000000" font-family="sans-serif" font-size="13" lengthAdjust="spacingAndGlyphs" textLength="177" x="73.5" y="706.2856">top, suggestions, spent tokens</text><!--MD5=[a62b928d2281706b1c730f60fee35a2d]
@startuml
participant Reporter as reporter
participant GitHub as github
participant Action as action
participant LLM as llm

reporter -> github: GitHub issue
github -> action: GitHub issue
action -> llm: issue, ask for problems
llm - -> action: problems
action -> llm: report, problems, validate
llm - -> action: validated
alt validated are empty
  action - -> github: success
  action - -> reporter: thank you
end
alt validated are not empty
  action -> llm: validated, format to Markdown
  llm - -> action: validated.md
  alt validated size > 3
    action -> llm: validated.md, cap top 3 problems
    llm - -> action: top
    action -> llm: top, polish Markdown
    llm - -> action: top.md
  end
  action -> llm: validated.md/polished.md, ask for suggestions
  llm - -> action: suggestions
  action -> llm: suggestions, format to Markdown
  llm - -> action: suggestions.md
  action - -> github: fail
  action - -> reporter: top, suggestions, spent tokens
end
@enduml

PlantUML version 1.2020.23(Sun Dec 13 19:14:58 GMT 2020)
(GPL source distribution)
Java Runtime: OpenJDK Runtime Environment
JVM: OpenJDK 64-Bit Server VM
Default Encoding: UTF-8
Language: en
Country: US
--></g></svg>